# Blender v2.76 (sub 0) OBJ File: 'goliath.blend'
# www.blender.org
mtllib ankle.mtl
o ankle_right_Cylinder.008
v 0.706673 -0.000000 -0.408455
v -0.744122 0.277464 -0.277464
v 0.534996 -0.000000 -0.534996
v -0.534996 0.000000 -0.534996
v 0.534996 0.378299 -0.378299
v -0.534996 0.378299 -0.378299
v 0.534996 0.534996 0.000000
v -0.534996 0.534996 0.000000
v 0.534996 0.378299 0.378299
v -0.534996 0.378299 0.378299
v 0.534996 -0.000000 0.534996
v -0.534996 -0.000000 0.534996
v 0.534996 -0.378299 0.378299
v -0.534996 -0.378299 0.378299
v 0.534996 -0.534996 -0.000000
v -0.534996 -0.534996 -0.000000
v 0.534996 -0.378299 -0.378299
v -0.534996 -0.378299 -0.378299
v -0.744122 0.000000 -0.392394
v -0.744122 0.392394 0.000000
v -0.744122 0.277464 0.277464
v -0.744122 0.000000 0.392394
v -0.744122 -0.277464 0.277464
v -0.744122 -0.392394 -0.000000
v -0.744122 -0.277464 -0.277464
v 0.706673 0.288821 -0.288821
v 0.706673 0.408455 0.000000
v 0.706673 0.288821 0.288821
v 0.706673 -0.000000 0.408455
v 0.706673 -0.288821 0.288821
v 0.706672 -0.408455 -0.000000
v 0.706673 -0.288821 -0.288821
vn 0.562900 -0.763600 0.316300
vn -0.533000 0.323800 -0.781700
vn -0.000000 0.382700 -0.923900
vn 0.562900 0.763600 0.316300
vn -0.533000 -0.781700 0.323800
vn 0.000000 0.923900 -0.382700
vn 0.562900 0.316300 -0.763600
vn -0.533000 0.781700 -0.323800
vn 0.000000 0.923900 0.382700
vn 0.562900 -0.316300 0.763600
vn -0.533000 -0.323800 0.781700
vn -0.000000 0.382700 0.923900
vn 0.562900 0.316300 0.763600
vn -0.533000 -0.323800 -0.781700
vn 0.000000 -0.382700 0.923900
vn 0.562900 -0.763600 -0.316300
vn -0.533000 0.323800 0.781700
vn -0.000000 -0.923900 0.382700
vn 1.000000 -0.000000 -0.000000
vn -1.000000 0.000000 0.000000
vn -0.000000 -0.923900 -0.382700
vn 0.562900 0.763600 -0.316300
vn -0.533000 -0.781700 -0.323800
vn -0.000000 -0.382700 -0.923900
vn -0.533000 0.781700 0.323800
vn 0.562900 -0.316300 -0.763600
usemtl None
s off
f 13//1 15//1 31//1
f 6//2 4//2 19//2
f 4//3 6//3 5//3
f 9//4 28//4 27//4
f 14//5 23//5 24//5
f 6//6 8//6 7//6
f 3//7 5//7 26//7
f 6//8 2//8 20//8
f 8//9 10//9 9//9
f 13//10 30//10 29//10
f 12//11 22//11 23//11
f 10//12 12//12 11//12
f 11//13 29//13 28//13
f 18//14 25//14 19//14
f 12//15 14//15 13//15
f 15//16 17//16 32//16
f 12//17 10//17 21//17
f 14//18 16//18 15//18
f 30//19 31//19 1//19
f 23//20 21//20 2//20
f 16//21 18//21 17//21
f 7//22 27//22 26//22
f 16//23 24//23 25//23
f 18//24 4//24 3//24
f 10//25 8//25 20//25
f 3//26 1//26 32//26
f 30//1 13//1 31//1
f 2//2 6//2 19//2
f 3//3 4//3 5//3
f 7//4 9//4 27//4
f 16//5 14//5 24//5
f 5//6 6//6 7//6
f 1//7 3//7 26//7
f 8//8 6//8 20//8
f 7//9 8//9 9//9
f 11//10 13//10 29//10
f 14//11 12//11 23//11
f 9//12 10//12 11//12
f 9//13 11//13 28//13
f 4//14 18//14 19//14
f 11//15 12//15 13//15
f 31//16 15//16 32//16
f 22//17 12//17 21//17
f 13//18 14//18 15//18
f 1//19 26//19 27//19
f 27//19 28//19 29//19
f 29//19 30//19 1//19
f 31//19 32//19 1//19
f 1//19 27//19 29//19
f 2//20 19//20 25//20
f 25//20 24//20 23//20
f 23//20 22//20 21//20
f 21//20 20//20 2//20
f 2//20 25//20 23//20
f 15//21 16//21 17//21
f 5//22 7//22 26//22
f 18//23 16//23 25//23
f 17//24 18//24 3//24
f 21//25 10//25 20//25
f 17//26 3//26 32//26
