# Blender v2.76 (sub 0) OBJ File: 'goliath.blend'
# www.blender.org
mtllib arm_right.mtl
o arm_right_Cube.021
v 0.604707 -0.604707 0.883856
v 0.604707 0.604707 1.721337
v 0.604707 -0.604707 -0.883856
v 0.604707 0.604707 -0.883856
v -0.604707 -0.604707 0.883856
v -0.604707 0.604707 1.721337
v -0.604707 -0.604707 -0.883856
v -0.604707 0.604707 -0.883856
v 0.170483 0.604707 -0.883856
v 0.170483 -0.212916 -0.883856
v -0.604707 0.604707 -0.883856
v -0.604707 -0.212916 -0.883856
v 0.170483 0.604707 -2.992540
v 0.170483 -0.212916 -2.992540
v -0.604707 0.604707 -2.992540
v -0.604707 -0.212916 -2.992540
vn -1.000000 0.000000 0.000000
vn 0.000000 0.000000 1.000000
vn 1.000000 0.000000 0.000000
vn 0.000000 0.569300 -0.822100
vn 0.000000 1.000000 0.000000
vn 0.000000 -1.000000 0.000000
usemtl None
s off
f 4//1 3//1 1//1
f 4//2 9//2 10//2
f 8//3 6//3 5//3
f 2//4 1//4 5//4
f 3//5 7//5 5//5
f 8//6 4//6 2//6
f 11//6 15//6 13//6
f 8//3 7//3 12//3
f 7//2 3//2 10//2
f 4//2 8//2 11//2
f 15//2 16//2 14//2
f 12//3 16//3 15//3
f 9//1 13//1 14//1
f 10//5 14//5 16//5
f 2//1 4//1 1//1
f 3//2 4//2 10//2
f 7//3 8//3 5//3
f 6//4 2//4 5//4
f 1//5 3//5 5//5
f 6//6 8//6 2//6
f 9//6 11//6 13//6
f 11//2 8//2 12//2
f 12//2 7//2 10//2
f 9//2 4//2 11//2
f 13//2 15//2 14//2
f 11//3 12//3 15//3
f 10//1 9//1 14//1
f 12//5 10//5 16//5
o arm_right_panel1_Cube.022
v -0.547191 0.631191 -0.955100
v -0.547191 0.596221 -0.920039
v -1.036869 1.859962 0.270488
v -1.036869 1.824993 0.305548
v 0.491167 0.631191 -0.955100
v 0.491167 0.596221 -0.920039
v 0.698627 1.859962 0.270488
v 0.698627 1.824993 0.305548
vn -0.962400 -0.192300 -0.191800
vn -0.000000 0.708000 0.706200
vn 0.992900 -0.084000 -0.083800
vn 0.000000 -0.708000 -0.706200
vn -0.000000 0.706200 -0.708000
vn 0.000000 -0.706200 0.708000
usemtl None
s off
f 20//7 19//7 17//7
f 24//8 23//8 19//8
f 22//9 21//9 23//9
f 18//10 17//10 21//10
f 17//11 19//11 23//11
f 24//12 20//12 18//12
f 18//7 20//7 17//7
f 20//8 24//8 19//8
f 24//9 22//9 23//9
f 22//10 18//10 21//10
f 21//11 17//11 23//11
f 22//12 24//12 18//12
o arm_right_panel2_Cube.023
v 0.480775 0.620621 -0.953735
v 0.458730 0.600227 -0.832509
v 0.695862 1.872982 0.277416
v 0.673817 1.852588 0.316788
v 1.259487 -0.114648 -0.967197
v 1.237441 -0.135042 -0.845971
v 2.310648 0.794828 0.174325
v 2.288602 0.774435 0.213697
vn -0.871100 0.404800 -0.278100
vn 0.470700 0.647700 0.599100
vn 0.658500 -0.752500 -0.006800
vn -0.668700 -0.703800 -0.240000
vn 0.368800 0.618700 -0.693700
vn -0.353800 -0.598700 0.718600
vn -0.950100 0.285800 -0.124700
vn 0.663400 -0.748100 -0.016000
vn 0.430400 0.469900 -0.770700
vn -0.410700 -0.449500 0.793200
usemtl None
s off
f 26//13 28//13 27//13
f 32//14 31//14 27//14
f 30//15 29//15 31//15
f 30//16 26//16 25//16
f 25//17 27//17 31//17
f 32//18 28//18 26//18
f 25//19 26//19 27//19
f 28//14 32//14 27//14
f 32//20 30//20 31//20
f 29//16 30//16 25//16
f 29//21 25//21 31//21
f 30//22 32//22 26//22
