# Blender v2.76 (sub 0) OBJ File: 'goliath.blend'
# www.blender.org
mtllib foot.mtl
o foot_right_Cylinder.006
v 0.000000 -1.000000 0.000000
v -0.000000 -0.559423 -0.000000
v 0.869784 -1.000000 -0.866025
v 0.652874 -0.559423 -0.490779
v 1.000000 -1.000000 0.000000
v 0.566703 -0.559423 0.000000
v 0.500000 -1.000000 0.866025
v 0.283351 -0.559423 0.490779
v -0.500000 -1.000000 0.866025
v -0.283352 -0.559423 0.490779
v -1.000000 -1.000000 -0.000000
v -0.566703 -0.559423 -0.000000
v -0.869784 -1.000000 -0.866025
v -0.652874 -0.559423 -0.490779
vn 0.000000 -1.000000 0.000000
vn 0.000000 1.000000 0.000000
vn 0.707500 0.695800 0.124200
vn 0.659300 0.648400 0.380600
vn -0.000000 0.648400 0.761300
vn -0.659300 0.648400 0.380600
vn -0.707500 0.695800 0.124200
vn -0.000000 0.648400 -0.761300
vn 0.842900 0.522900 -0.126700
vn -0.842900 0.522900 -0.126700
usemtl None
s off
f 1//1 3//1 5//1
f 2//2 6//2 4//2
f 4//3 6//3 5//3
f 1//1 5//1 7//1
f 2//2 8//2 6//2
f 6//4 8//4 7//4
f 1//1 7//1 9//1
f 2//2 10//2 8//2
f 8//5 10//5 9//5
f 1//1 9//1 11//1
f 2//2 12//2 10//2
f 9//6 10//6 12//6
f 1//1 11//1 13//1
f 2//2 14//2 12//2
f 11//7 12//7 14//7
f 1//1 13//1 3//1
f 2//2 4//2 14//2
f 13//8 14//8 4//8
f 3//9 4//9 5//9
f 5//4 6//4 7//4
f 7//5 8//5 9//5
f 11//6 9//6 12//6
f 13//10 11//10 14//10
f 3//8 13//8 4//8
o foot_right1_Cube.012
v -0.101201 -0.996535 -0.543201
v -0.101201 -0.539786 -0.543201
v -0.101201 -0.996535 -1.555292
v -0.101201 -0.547876 -0.546022
v 0.100209 -0.996535 -0.543201
v 0.100209 -0.539786 -0.543201
v 0.100209 -0.996535 -1.555292
v 0.100209 -0.547876 -0.546022
vn -1.000000 0.000000 -0.000000
vn 0.000000 0.913800 -0.406200
vn 1.000000 0.000000 0.000000
vn 0.000000 0.000000 1.000000
vn 0.000000 -1.000000 0.000000
vn 0.000000 0.329300 -0.944200
usemtl None
s off
f 18//11 17//11 15//11
f 22//12 21//12 17//12
f 22//13 20//13 19//13
f 16//14 15//14 19//14
f 17//15 21//15 19//15
f 22//16 18//16 16//16
f 16//11 18//11 15//11
f 18//12 22//12 17//12
f 21//13 22//13 19//13
f 20//14 16//14 19//14
f 15//15 17//15 19//15
f 20//16 22//16 16//16
o foot_right2_Cube.013
v 0.691213 -0.729437 -1.681657
v 0.691213 -1.001325 -2.624513
v 0.691213 -0.729437 -0.324388
v 0.691213 -1.001325 -0.324388
v 0.368172 -0.729437 -1.681657
v 0.368172 -1.001325 -2.624513
v 0.368172 -0.729437 -0.324388
v 0.368172 -1.001325 -0.324388
vn -1.000000 0.000000 0.000000
vn 0.000000 0.000000 -1.000000
vn 1.000000 0.000000 0.000000
vn 0.000000 -0.960800 0.277100
vn 0.000000 -1.000000 -0.000000
vn 0.000000 1.000000 0.000000
usemtl None
s off
f 26//17 25//17 23//17
f 30//18 29//18 25//18
f 30//19 28//19 27//19
f 24//20 23//20 27//20
f 25//21 29//21 27//21
f 30//22 26//22 24//22
f 24//17 26//17 23//17
f 26//18 30//18 25//18
f 29//19 30//19 27//19
f 28//20 24//20 27//20
f 23//21 25//21 27//21
f 28//22 30//22 24//22
o foot_right3_Cube.014
v -0.351255 -0.729437 -1.681657
v -0.351255 -1.001325 -2.624513
v -0.351255 -0.729437 -0.324388
v -0.351255 -1.001325 -0.324388
v -0.674296 -0.729437 -1.681657
v -0.674296 -1.001325 -2.624513
v -0.674296 -0.729437 -0.324388
v -0.674296 -1.001325 -0.324388
vn -1.000000 0.000000 -0.000000
vn 0.000000 0.000000 -1.000000
vn 1.000000 -0.000000 0.000000
vn 0.000000 -0.960800 0.277100
vn 0.000000 -1.000000 0.000000
vn 0.000000 1.000000 0.000000
usemtl None
s off
f 34//23 33//23 31//23
f 38//24 37//24 33//24
f 38//25 36//25 35//25
f 32//26 31//26 35//26
f 31//27 33//27 37//27
f 38//28 34//28 32//28
f 32//23 34//23 31//23
f 34//24 38//24 33//24
f 37//25 38//25 35//25
f 36//26 32//26 35//26
f 35//27 31//27 37//27
f 36//28 38//28 32//28
o foot_right4_Cylinder.007
v 0.000000 -0.569115 -0.000000
v 0.000000 -0.067699 -0.000000
v 0.000000 -0.569115 -0.481735
v 0.000000 -0.067699 -0.386956
v 0.484135 -0.569115 -0.308849
v 0.335114 -0.067699 -0.193478
v 0.387992 -0.569115 0.284813
v 0.335114 -0.067699 0.193478
v -0.000000 -0.569115 0.386956
v -0.000000 -0.067699 0.386956
v -0.416835 -0.569115 0.241549
v -0.335114 -0.067699 0.193478
v -0.488942 -0.569115 -0.332885
v -0.335114 -0.067699 -0.193478
vn 0.000000 -1.000000 0.000000
vn 0.000000 1.000000 0.000000
vn 0.493400 0.161500 -0.854700
vn 0.994500 0.104900 0.000000
vn 0.500000 0.000000 0.866000
vn -0.500000 0.000000 0.866000
vn -0.987000 0.160900 0.000000
vn -0.493400 0.161500 -0.854700
vn 0.320600 0.301900 -0.897800
vn 0.956200 0.248500 0.154800
vn 0.249500 0.198900 0.947700
vn -0.326000 0.142700 0.934500
vn -0.958000 0.260500 0.120300
vn -0.274400 0.334800 -0.901400
usemtl None
s off
f 39//29 41//29 43//29
f 40//30 44//30 42//30
f 41//31 42//31 44//31
f 39//29 43//29 45//29
f 40//30 46//30 44//30
f 44//32 46//32 45//32
f 39//29 45//29 47//29
f 40//30 48//30 46//30
f 46//33 48//33 47//33
f 39//29 47//29 49//29
f 40//30 50//30 48//30
f 47//34 48//34 50//34
f 39//29 49//29 51//29
f 40//30 52//30 50//30
f 49//35 50//35 52//35
f 39//29 51//29 41//29
f 40//30 42//30 52//30
f 52//36 42//36 41//36
f 43//37 41//37 44//37
f 43//38 44//38 45//38
f 45//39 46//39 47//39
f 49//40 47//40 50//40
f 51//41 49//41 52//41
f 51//42 52//42 41//42
