# Blender v2.76 (sub 0) OBJ File: 'goliath.blend'
# www.blender.org
mtllib gun.mtl
o gun_right_Cylinder.011
v 0.000000 -0.000000 0.520957
v -0.000000 -0.359628 -1.309745
v 0.000000 -0.520957 0.520957
v 0.000000 -0.520957 -0.520957
v 0.368372 -0.368372 0.520957
v 0.368372 -0.368372 -0.520957
v 0.520957 -0.000000 0.520957
v 0.520957 0.000000 -0.520957
v 0.368372 0.368372 0.520957
v 0.368372 0.368372 -0.520957
v -0.000000 0.520957 0.520957
v -0.000000 0.520957 -0.520957
v -0.368372 0.368372 0.520957
v -0.368372 0.368372 -0.520957
v -0.520957 -0.000000 0.520957
v -0.520957 0.000000 -0.520957
v -0.368372 -0.368372 0.520957
v -0.368372 -0.368372 -0.520957
v -0.000000 -0.359628 -0.796504
v 0.000000 -0.492590 -1.603342
v 0.254296 -0.254296 -0.796504
v 0.359628 0.000000 -0.796504
v 0.254296 0.254296 -0.796504
v -0.000000 0.359628 -0.796504
v -0.254296 0.254296 -0.796504
v -0.359628 0.000000 -0.796504
v -0.254296 -0.254296 -0.796504
v 0.254296 -0.254296 -1.309745
v 0.359628 0.000000 -1.309745
v 0.254296 0.254296 -1.309745
v -0.000000 0.359628 -1.309745
v -0.254296 0.254296 -1.309745
v -0.359628 0.000000 -1.309745
v -0.254296 -0.254296 -1.309745
v 0.000000 0.000000 -1.603342
v 0.348313 -0.348313 -1.603342
v 0.492590 0.000000 -1.603342
v 0.348313 0.348313 -1.603342
v -0.000000 0.492590 -1.603342
v -0.348313 0.348313 -1.603342
v -0.492590 0.000000 -1.603342
v -0.348313 -0.348313 -1.603342
v 0.000000 -0.492590 -3.438857
v 0.000000 0.000000 -3.438857
v 0.348313 -0.348313 -3.438857
v 0.492590 0.000000 -3.438857
v 0.348313 0.348314 -3.438857
v -0.000000 0.492590 -3.438857
v -0.348313 0.348313 -3.438857
v -0.492590 0.000000 -3.438857
v -0.348313 -0.348313 -3.438857
v 0.348313 0.348313 -1.603342
vn -0.000000 -0.000000 1.000000
vn -0.812600 0.336600 -0.475800
vn 0.382700 -0.923900 -0.000000
vn 0.812600 -0.336600 -0.475800
vn 0.923900 -0.382700 -0.000000
vn -0.336600 0.812600 -0.475800
vn 0.923900 0.382700 0.000000
vn -0.336600 -0.812600 -0.475800
vn 0.382700 0.923900 0.000000
vn 0.336600 0.812600 -0.475800
vn -0.382700 0.923900 0.000000
vn -0.812600 -0.336600 -0.475800
vn -0.923900 0.382700 0.000000
vn 0.812600 0.336600 -0.475800
vn -0.923900 -0.382700 -0.000000
vn 0.336600 -0.812600 -0.475800
vn -0.382700 -0.923900 -0.000000
vn 0.353000 0.852300 0.386000
vn -0.353000 0.852300 0.386000
vn -0.852300 0.353000 0.386000
vn -0.852300 -0.353000 0.386000
vn 0.353000 -0.852300 0.386000
vn 0.852300 -0.353000 0.386000
vn -0.353000 -0.852300 0.386000
vn 0.852300 0.353000 0.386000
vn 0.000000 0.000000 -1.000000
vn 0.000000 -1.000000 -0.000000
vn 0.707100 -0.707100 -0.000000
vn -1.000000 0.000000 0.000000
vn 1.000000 0.000000 -0.000000
vn -0.000000 1.000000 0.000000
vn 0.707100 0.707100 0.000000
vn -0.707100 0.707100 0.000000
vn -0.707100 -0.707100 0.000000
usemtl None
s off
f 1//1 3//1 5//1
f 16//2 14//2 25//2
f 3//3 4//3 6//3
f 1//1 5//1 7//1
f 8//4 6//4 21//4
f 5//5 6//5 8//5
f 1//1 7//1 9//1
f 12//6 24//6 25//6
f 8//7 10//7 9//7
f 1//1 9//1 11//1
f 4//8 18//8 27//8
f 10//9 12//9 11//9
f 1//1 11//1 13//1
f 10//10 23//10 24//10
f 12//11 14//11 13//11
f 1//1 13//1 15//1
f 16//12 26//12 27//12
f 14//13 16//13 15//13
f 1//1 15//1 17//1
f 8//14 22//14 23//14
f 16//15 18//15 17//15
f 1//1 17//1 3//1
f 4//16 19//16 21//16
f 18//17 4//17 3//17
f 19//3 2//3 28//3
f 21//5 28//5 29//5
f 27//17 34//17 2//17
f 22//7 29//7 30//7
f 23//9 30//9 31//9
f 24//11 31//11 32//11
f 25//13 32//13 33//13
f 26//15 33//15 34//15
f 30//18 38//18 39//18
f 32//19 31//19 39//19
f 32//20 40//20 41//20
f 33//21 41//21 42//21
f 2//22 20//22 36//22
f 28//23 36//23 37//23
f 34//24 42//24 20//24
f 29//25 37//25 38//25
f 39//11 48//11 49//11
f 35//26 37//26 36//26
f 35//27 44//27 46//27
f 35//26 39//26 38//26
f 42//28 51//28 44//28
f 35//26 41//26 40//26
f 37//7 46//7 47//7
f 35//26 20//26 42//26
f 44//26 45//26 43//26
f 44//26 47//26 46//26
f 44//26 49//26 48//26
f 44//26 51//26 50//26
f 35//29 44//29 43//29
f 35//30 44//30 48//30
f 41//15 50//15 51//15
f 35//31 44//31 50//31
f 36//32 45//32 44//32
f 38//33 47//33 44//33
f 20//3 43//3 45//3
f 40//34 49//34 44//34
f 26//2 16//2 25//2
f 5//3 3//3 6//3
f 22//4 8//4 21//4
f 7//5 5//5 8//5
f 14//6 12//6 25//6
f 7//7 8//7 9//7
f 19//8 4//8 27//8
f 9//9 10//9 11//9
f 12//10 10//10 24//10
f 11//11 12//11 13//11
f 18//12 16//12 27//12
f 13//13 14//13 15//13
f 10//14 8//14 23//14
f 15//15 16//15 17//15
f 6//16 4//16 21//16
f 17//17 18//17 3//17
f 21//3 19//3 28//3
f 22//5 21//5 29//5
f 19//17 27//17 2//17
f 23//7 22//7 30//7
f 24//9 23//9 31//9
f 25//11 24//11 32//11
f 26//13 25//13 33//13
f 27//15 26//15 34//15
f 31//18 30//18 39//18
f 40//19 32//19 39//19
f 33//20 32//20 41//20
f 34//21 33//21 42//21
f 28//22 2//22 36//22
f 29//23 28//23 37//23
f 2//24 34//24 20//24
f 30//25 29//25 38//25
f 40//11 39//11 49//11
f 37//27 35//27 46//27
f 35//28 42//28 44//28
f 38//7 37//7 47//7
f 20//29 35//29 43//29
f 39//30 35//30 48//30
f 42//15 41//15 51//15
f 41//31 35//31 50//31
f 35//32 36//32 44//32
f 35//33 38//33 44//33
f 36//3 20//3 45//3
f 35//34 40//34 44//34
l 38 52
