# Blender v2.76 (sub 0) OBJ File: 'goliath.blend'
# www.blender.org
mtllib leg_lower_right.mtl
o leg_lower_right_Cube.011
v 0.369557 -1.399778 -0.538398
v 0.369557 0.972637 1.141591
v 0.369557 -0.972637 -1.141591
v 0.369557 1.399778 0.538398
v -0.369557 -1.399778 -0.538398
v -0.369557 0.972637 1.141591
v -0.369557 -0.972637 -1.141591
v -0.369557 1.399778 0.538398
v 0.369557 -1.230203 -1.143058
v 0.369557 -1.486685 -0.780864
v -0.369557 -1.230203 -1.143058
v -0.369557 -1.486685 -0.780864
v 0.369557 1.387723 0.529862
v 0.369557 0.716808 0.054763
v -0.369557 1.387723 0.529862
v -0.369557 0.716808 0.054763
v 0.369557 1.370169 0.238064
v 0.369557 0.997879 -0.025567
v -0.369557 1.370169 0.238064
v -0.369557 0.997879 -0.025567
v 0.369557 0.279132 0.359137
v 0.369557 0.715096 0.667858
v 0.369557 0.867409 0.452768
v 0.369557 0.431445 0.144047
v 0.543145 0.279132 0.359137
v 0.543145 0.715096 0.667858
v 0.543145 0.867409 0.452768
v 0.543145 0.431445 0.144047
vn -1.000000 0.000000 0.000000
vn 1.000000 0.000000 0.000000
vn 0.000000 0.577900 -0.816100
vn 0.000000 -0.816100 -0.577900
vn 0.000000 0.816100 0.577900
vn 0.000000 -0.005700 1.000000
vn 0.000000 0.941400 -0.337400
vn 0.000000 -0.577900 0.816100
vn -0.992300 0.124000 0.000000
vn 0.000000 0.274800 0.961500
vn 0.000000 -0.998200 0.060000
vn 0.000000 0.000000 1.000000
usemtl None
s off
f 4//1 3//1 24//1
f 8//1 7//1 16//1
f 8//2 6//2 5//2
f 2//3 1//3 5//3
f 3//1 9//1 10//1
f 8//4 4//4 2//4
f 9//5 11//5 12//5
f 7//6 11//6 9//6
f 1//7 10//7 12//7
f 5//2 12//2 11//2
f 13//1 17//1 18//1
f 3//8 14//8 16//8
f 8//8 15//8 13//8
f 3//9 4//9 13//9
f 19//8 20//8 18//8
f 14//10 18//10 20//10
f 15//11 19//11 17//11
f 15//2 16//2 20//2
f 23//4 27//4 26//4
f 2//1 22//1 21//1
f 1//1 21//1 24//1
f 4//1 23//1 22//1
f 27//1 28//1 25//1
f 24//8 28//8 27//8
f 22//3 26//3 25//3
f 21//5 25//5 28//5
f 23//1 4//1 24//1
f 15//12 8//12 16//12
f 7//2 8//2 5//2
f 6//3 2//3 5//3
f 1//1 3//1 10//1
f 6//4 8//4 2//4
f 10//5 9//5 12//5
f 3//6 7//6 9//6
f 5//7 1//7 12//7
f 7//2 5//2 11//2
f 14//1 13//1 18//1
f 7//8 3//8 16//8
f 4//8 8//8 13//8
f 14//2 3//2 13//2
f 17//8 19//8 18//8
f 16//10 14//10 20//10
f 13//11 15//11 17//11
f 19//2 15//2 20//2
f 22//4 23//4 26//4
f 1//1 2//1 21//1
f 3//1 1//1 24//1
f 2//1 4//1 22//1
f 26//1 27//1 25//1
f 23//8 24//8 27//8
f 21//3 22//3 25//3
f 24//5 21//5 28//5
